<?xml version="1.0" standalone="no"?><!DOCTYPE svg PUBLIC "-//W3C//DTD SVG 1.1//EN" "http://www.w3.org/Graphics/SVG/1.1/DTD/svg11.dtd"><svg t="1717345877125" class="icon" viewBox="0 0 1024 1024" version="1.1" xmlns="http://www.w3.org/2000/svg" p-id="6319" width="200" height="200" xmlns:xlink="http://www.w3.org/1999/xlink"><path d="M1023.2 255.6c0.2-44.7-30.7-83.6-74.4-93.5l-416.1-96c-14.1-3.2-28.7-3.1-42.7 0.1l-415.6 96C30.6 172.3 0 210.7 0 255.7s30.6 83.4 74.3 93.5l85.5 19.7v270.5c0 84.9 97.1 159.9 351.7 159.9S863.2 724.3 863.2 639.4V368.9l85.5-19.7c43.8-10 74.7-48.8 74.5-93.6zM799.4 639.4c0 35.3-95.9 95.9-287.8 95.9s-287.8-60.6-287.8-95.9V383.6l266.6 61.5c14.1 3.2 28.7 3.1 42.7-0.1l266.2-61.4v255.8zM518.8 382.8c-4.7 1-9.6 1-14.4 0l-415.6-96c-14.5-3.3-24.9-16.3-24.9-31.2 0-14.9 10.3-27.9 24.9-31.2l415.7-95.9c4.7-1 9.6-1 14.4 0l415.7 95.9c14.5 3.4 24.8 16.3 24.8 31.2 0 14.9-10.3 27.8-24.8 31.2l-415.8 96z m0 0" p-id="6320" fill="#0629f4"></path><path d="M927.3 415.5v287.8c0 17.7 14.3 32 32 32s32-14.3 32-32V415.5c0-17.7-14.3-32-32-32-17.7 0.1-32 14.4-32 32z m32 351.8c-35.3 0-63.9 92.6-63.9 127.9 0 35.3 28.6 64 63.9 64s63.9-28.6 63.9-64-28.6-127.9-63.9-127.9z m0 0" p-id="6321" fill="#0629f4"></path></svg>